<svg width="1400" height="1000" xmlns="http://www.w3.org/2000/svg" version="1.1">


<!-- internal style sheet -->
<style type="text/css"><![CDATA[
 rect.background{fill:white}
 rect{fill:none; stroke:rgb(25,25,25); stroke-width:2}
 text{font-family:Helvetica; text-anchor:middle; fill:rgb(25,25,25)}
 line{stroke:rgb(25,25,25); stroke-width:4}
 path{fill:none; stroke:rgb(25,25,25); stroke-width:2}

 path.p0{fill:rgb(0,102,255); stroke:rgb(25,25,25); stroke-width:2}
 path.ps0{fill:rgb(0,77,191); stroke:rgb(20,20,20); stroke-width:2}
 rect.r0{fill:rgb(0,102,255); stroke:rgb(25,25,25); stroke-width:2}
 path.p1{fill:rgb(0,255,255); stroke:rgb(25,25,25); stroke-width:2}
 path.ps1{fill:rgb(0,191,191); stroke:rgb(20,20,20); stroke-width:2}
 rect.r1{fill:rgb(0,255,255); stroke:rgb(25,25,25); stroke-width:2}
 path.p2{fill:rgb(0,255,102); stroke:rgb(25,25,25); stroke-width:2}
 path.ps2{fill:rgb(0,191,77); stroke:rgb(20,20,20); stroke-width:2}
 rect.r2{fill:rgb(0,255,102); stroke:rgb(25,25,25); stroke-width:2}
 path.p3{fill:rgb(51,255,0); stroke:rgb(25,25,25); stroke-width:2}
 path.ps3{fill:rgb(38,191,0); stroke:rgb(20,20,20); stroke-width:2}
 rect.r3{fill:rgb(51,255,0); stroke:rgb(25,25,25); stroke-width:2}
 path.p4{fill:rgb(204,255,0); stroke:rgb(25,25,25); stroke-width:2}
 path.ps4{fill:rgb(153,191,0); stroke:rgb(20,20,20); stroke-width:2}
 rect.r4{fill:rgb(204,255,0); stroke:rgb(25,25,25); stroke-width:2}
 path.p5{fill:rgb(255,153,0); stroke:rgb(25,25,25); stroke-width:2}
 path.ps5{fill:rgb(191,115,0); stroke:rgb(20,20,20); stroke-width:2}
 rect.r5{fill:rgb(255,153,0); stroke:rgb(25,25,25); stroke-width:2}
 path.p6{fill:rgb(255,0,0); stroke:rgb(25,25,25); stroke-width:2}
 path.ps6{fill:rgb(191,0,0); stroke:rgb(20,20,20); stroke-width:2}
 rect.r6{fill:rgb(255,0,0); stroke:rgb(25,25,25); stroke-width:2}
]]></style>

 <rect class="background" width="1000" height="1000"/>
  <!-- cells -->
  <path class="p2" d="M 80 920 L 290 920 L 290 710 L 80 710 L 80 920"/>
  <text x="185" y="840" style="font-size:49px">2,0</text>
  <line x1="80" y1="920" x2="80" y2="710"/>
  <line x1="80" y1="920" x2="290" y2="920"/>
  <path class="p3" d="M 290 710 L 395 710 L 395 605 L 290 605 L 290 710"/>
  <text x="343" y="671" style="font-size:26px">3,0</text>
  <path class="p3" d="M 815 710 L 920 710 L 920 605 L 815 605 L 815 710"/>
  <text x="868" y="670" style="font-size:25px">3,9</text>
  <line x1="920" y1="710" x2="920" y2="605"/>
  <path class="p3" d="M 815 605 L 920 605 L 920 500 L 815 500 L 815 605"/>
  <text x="868" y="565" style="font-size:25px">3,11</text>
  <line x1="920" y1="605" x2="920" y2="500"/>
  <path class="p3" d="M 290 185 L 395 185 L 395 80 L 290 80 L 290 185"/>
  <text x="343" y="145" style="font-size:25px">3,18</text>
  <line x1="290" y1="80" x2="395" y2="80"/>
  <path class="p3" d="M 395 185 L 500 185 L 500 80 L 395 80 L 395 185"/>
  <text x="448" y="145" style="font-size:25px">3,19</text>
  <line x1="395" y1="80" x2="500" y2="80"/>
  <path class="p3" d="M 815 290 L 920 290 L 920 185 L 815 185 L 815 290"/>
  <text x="868" y="250" style="font-size:24px">3,29</text>
  <line x1="920" y1="290" x2="920" y2="185"/>
  <path class="p3" d="M 710 185 L 815 185 L 815 80 L 710 80 L 710 185"/>
  <text x="763" y="145" style="font-size:24px">3,30</text>
  <line x1="710" y1="80" x2="815" y2="80"/>
  <path class="p3" d="M 815 185 L 920 185 L 920 80 L 815 80 L 815 185"/>
  <text x="868" y="145" style="font-size:24px">3,31</text>
  <line x1="920" y1="185" x2="920" y2="80"/>
  <line x1="815" y1="80" x2="920" y2="80"/>
  <path class="p3" d="M 500 920 L 605 920 L 605 815 L 500 815 L 500 920"/>
  <text x="553" y="880" style="font-size:25px">3,36</text>
  <line x1="500" y1="920" x2="605" y2="920"/>
  <path class="p3" d="M 605 920 L 710 920 L 710 815 L 605 815 L 605 920"/>
  <text x="658" y="880" style="font-size:25px">3,37</text>
  <line x1="605" y1="920" x2="710" y2="920"/>
  <path class="p3" d="M 500 815 L 605 815 L 605 710 L 500 710 L 500 815"/>
  <text x="553" y="776" style="font-size:26px">3,38</text>
  <path class="p3" d="M 605 815 L 710 815 L 710 710 L 605 710 L 605 815"/>
  <text x="658" y="775" style="font-size:25px">3,39</text>
  <path class="p3" d="M 80 500 L 185 500 L 185 395 L 80 395 L 80 500"/>
  <text x="133" y="460" style="font-size:25px">3,40</text>
  <line x1="80" y1="500" x2="80" y2="395"/>
  <path class="p3" d="M 185 500 L 290 500 L 290 395 L 185 395 L 185 500"/>
  <text x="238" y="461" style="font-size:26px">3,41</text>
  <path class="p3" d="M 80 395 L 185 395 L 185 290 L 80 290 L 80 395"/>
  <text x="133" y="355" style="font-size:25px">3,42</text>
  <line x1="80" y1="395" x2="80" y2="290"/>
  <path class="p3" d="M 185 395 L 290 395 L 290 290 L 185 290 L 185 395"/>
  <text x="238" y="355" style="font-size:25px">3,43</text>
  <path class="p3" d="M 290 920 L 395 920 L 395 815 L 290 815 L 290 920"/>
  <text x="343" y="880" style="font-size:25px">3,44</text>
  <line x1="290" y1="920" x2="395" y2="920"/>
  <path class="p3" d="M 395 920 L 500 920 L 500 815 L 395 815 L 395 920"/>
  <text x="448" y="880" style="font-size:25px">3,45</text>
  <line x1="395" y1="920" x2="500" y2="920"/>
  <path class="p3" d="M 290 815 L 395 815 L 395 710 L 290 710 L 290 815"/>
  <text x="343" y="775" style="font-size:25px">3,46</text>
  <path class="p3" d="M 395 815 L 500 815 L 500 710 L 395 710 L 395 815"/>
  <text x="448" y="776" style="font-size:26px">3,47</text>
  <path class="p3" d="M 80 710 L 185 710 L 185 605 L 80 605 L 80 710"/>
  <text x="133" y="670" style="font-size:25px">3,48</text>
  <line x1="80" y1="710" x2="80" y2="605"/>
  <path class="p3" d="M 185 710 L 290 710 L 290 605 L 185 605 L 185 710"/>
  <text x="238" y="670" style="font-size:25px">3,49</text>
  <path class="p3" d="M 80 605 L 185 605 L 185 500 L 80 500 L 80 605"/>
  <text x="133" y="565" style="font-size:25px">3,50</text>
  <line x1="80" y1="605" x2="80" y2="500"/>
  <path class="p3" d="M 185 605 L 290 605 L 290 500 L 185 500 L 185 605"/>
  <text x="238" y="566" style="font-size:26px">3,51</text>
  <path class="p3" d="M 710 920 L 815 920 L 815 815 L 710 815 L 710 920"/>
  <text x="763" y="880" style="font-size:24px">3,52</text>
  <line x1="710" y1="920" x2="815" y2="920"/>
  <path class="p3" d="M 815 920 L 920 920 L 920 815 L 815 815 L 815 920"/>
  <text x="868" y="880" style="font-size:24px">3,53</text>
  <line x1="920" y1="920" x2="920" y2="815"/>
  <line x1="815" y1="920" x2="920" y2="920"/>
  <path class="p3" d="M 710 815 L 815 815 L 815 710 L 710 710 L 710 815"/>
  <text x="763" y="775" style="font-size:25px">3,54</text>
  <path class="p3" d="M 815 815 L 920 815 L 920 710 L 815 710 L 815 815"/>
  <text x="868" y="775" style="font-size:24px">3,55</text>
  <line x1="920" y1="815" x2="920" y2="710"/>
  <path class="p3" d="M 80 290 L 185 290 L 185 185 L 80 185 L 80 290"/>
  <text x="133" y="250" style="font-size:24px">3,56</text>
  <line x1="80" y1="290" x2="80" y2="185"/>
  <path class="p3" d="M 185 290 L 290 290 L 290 185 L 185 185 L 185 290"/>
  <text x="238" y="250" style="font-size:25px">3,57</text>
  <path class="p3" d="M 80 185 L 185 185 L 185 80 L 80 80 L 80 185"/>
  <text x="133" y="145" style="font-size:24px">3,58</text>
  <line x1="80" y1="185" x2="80" y2="80"/>
  <line x1="80" y1="80" x2="185" y2="80"/>
  <path class="p3" d="M 185 185 L 290 185 L 290 80 L 185 80 L 185 185"/>
  <text x="238" y="145" style="font-size:24px">3,59</text>
  <line x1="185" y1="80" x2="290" y2="80"/>
  <path class="p4" d="M 395 605 L 448 605 L 448 553 L 395 553 L 395 605"/>
  <text x="421" y="585" style="font-size:13px">4,0</text>
  <path class="p4" d="M 763 605 L 815 605 L 815 553 L 763 553 L 763 605"/>
  <text x="789" y="585" style="font-size:13px">4,13</text>
  <path class="p4" d="M 763 553 L 815 553 L 815 500 L 763 500 L 763 553"/>
  <text x="789" y="533" style="font-size:13px">4,15</text>
  <path class="p4" d="M 395 238 L 448 238 L 448 185 L 395 185 L 395 238"/>
  <text x="421" y="218" style="font-size:13px">4,26</text>
  <path class="p4" d="M 448 238 L 500 238 L 500 185 L 448 185 L 448 238"/>
  <text x="474" y="218" style="font-size:13px">4,27</text>
  <path class="p4" d="M 763 290 L 815 290 L 815 238 L 763 238 L 763 290"/>
  <text x="789" y="270" style="font-size:12px">4,45</text>
  <path class="p4" d="M 710 238 L 763 238 L 763 185 L 710 185 L 710 238"/>
  <text x="736" y="217" style="font-size:12px">4,46</text>
  <path class="p4" d="M 763 238 L 815 238 L 815 185 L 763 185 L 763 238"/>
  <text x="789" y="217" style="font-size:12px">4,47</text>
  <path class="p4" d="M 500 710 L 553 710 L 553 658 L 500 658 L 500 710"/>
  <text x="526" y="690" style="font-size:13px">4,48</text>
  <path class="p4" d="M 553 710 L 605 710 L 605 658 L 553 658 L 553 710"/>
  <text x="579" y="690" style="font-size:13px">4,49</text>
  <path class="p4" d="M 500 658 L 553 658 L 553 605 L 500 605 L 500 658"/>
  <text x="526" y="638" style="font-size:13px">4,50</text>
  <path class="p4" d="M 553 658 L 605 658 L 605 605 L 553 605 L 553 658"/>
  <text x="579" y="638" style="font-size:13px">4,51</text>
  <path class="p4" d="M 605 710 L 658 710 L 658 658 L 605 658 L 605 710"/>
  <text x="631" y="690" style="font-size:13px">4,52</text>
  <path class="p4" d="M 658 710 L 710 710 L 710 658 L 658 658 L 658 710"/>
  <text x="684" y="690" style="font-size:13px">4,53</text>
  <path class="p4" d="M 605 658 L 658 658 L 658 605 L 605 605 L 605 658"/>
  <text x="631" y="638" style="font-size:13px">4,54</text>
  <path class="p4" d="M 658 658 L 710 658 L 710 605 L 658 605 L 658 658"/>
  <text x="684" y="638" style="font-size:13px">4,55</text>
  <path class="p4" d="M 290 500 L 343 500 L 343 448 L 290 448 L 290 500"/>
  <text x="316" y="480" style="font-size:13px">4,56</text>
  <path class="p4" d="M 343 500 L 395 500 L 395 448 L 343 448 L 343 500"/>
  <text x="369" y="480" style="font-size:13px">4,57</text>
  <path class="p4" d="M 290 448 L 343 448 L 343 395 L 290 395 L 290 448"/>
  <text x="316" y="428" style="font-size:13px">4,58</text>
  <path class="p4" d="M 343 448 L 395 448 L 395 395 L 343 395 L 343 448"/>
  <text x="369" y="428" style="font-size:13px">4,59</text>
  <path class="p4" d="M 290 395 L 343 395 L 343 343 L 290 343 L 290 395"/>
  <text x="316" y="375" style="font-size:13px">4,60</text>
  <path class="p4" d="M 343 395 L 395 395 L 395 343 L 343 343 L 343 395"/>
  <text x="369" y="375" style="font-size:13px">4,61</text>
  <path class="p4" d="M 290 343 L 343 343 L 343 290 L 290 290 L 290 343"/>
  <text x="316" y="323" style="font-size:13px">4,62</text>
  <path class="p4" d="M 343 343 L 395 343 L 395 290 L 343 290 L 343 343"/>
  <text x="369" y="323" style="font-size:13px">4,63</text>
  <path class="p4" d="M 500 500 L 553 500 L 553 448 L 500 448 L 500 500"/>
  <text x="526" y="480" style="font-size:13px">4,64</text>
  <path class="p4" d="M 553 500 L 605 500 L 605 448 L 553 448 L 553 500"/>
  <text x="579" y="480" style="font-size:13px">4,65</text>
  <path class="p4" d="M 500 448 L 553 448 L 553 395 L 500 395 L 500 448"/>
  <text x="526" y="428" style="font-size:13px">4,66</text>
  <path class="p4" d="M 553 448 L 605 448 L 605 395 L 553 395 L 553 448"/>
  <text x="579" y="428" style="font-size:13px">4,67</text>
  <path class="p4" d="M 605 500 L 658 500 L 658 448 L 605 448 L 605 500"/>
  <text x="631" y="480" style="font-size:13px">4,68</text>
  <path class="p4" d="M 605 448 L 658 448 L 658 395 L 605 395 L 605 448"/>
  <text x="631" y="428" style="font-size:13px">4,70</text>
  <path class="p4" d="M 658 448 L 710 448 L 710 395 L 658 395 L 658 448"/>
  <text x="684" y="428" style="font-size:13px">4,71</text>
  <path class="p4" d="M 500 395 L 553 395 L 553 343 L 500 343 L 500 395"/>
  <text x="526" y="375" style="font-size:13px">4,72</text>
  <path class="p4" d="M 553 395 L 605 395 L 605 343 L 553 343 L 553 395"/>
  <text x="579" y="375" style="font-size:13px">4,73</text>
  <path class="p4" d="M 553 343 L 605 343 L 605 290 L 553 290 L 553 343"/>
  <text x="579" y="323" style="font-size:13px">4,75</text>
  <path class="p4" d="M 605 395 L 658 395 L 658 343 L 605 343 L 605 395"/>
  <text x="631" y="375" style="font-size:13px">4,76</text>
  <path class="p4" d="M 658 395 L 710 395 L 710 343 L 658 343 L 658 395"/>
  <text x="684" y="375" style="font-size:13px">4,77</text>
  <path class="p4" d="M 605 343 L 658 343 L 658 290 L 605 290 L 605 343"/>
  <text x="631" y="323" style="font-size:13px">4,78</text>
  <path class="p4" d="M 395 710 L 448 710 L 448 658 L 395 658 L 395 710"/>
  <text x="421" y="690" style="font-size:13px">4,80</text>
  <path class="p4" d="M 448 710 L 500 710 L 500 658 L 448 658 L 448 710"/>
  <text x="474" y="690" style="font-size:13px">4,81</text>
  <path class="p4" d="M 395 658 L 448 658 L 448 605 L 395 605 L 395 658"/>
  <text x="421" y="638" style="font-size:13px">4,82</text>
  <path class="p4" d="M 448 658 L 500 658 L 500 605 L 448 605 L 448 658"/>
  <text x="474" y="638" style="font-size:13px">4,83</text>
  <path class="p4" d="M 290 605 L 343 605 L 343 553 L 290 553 L 290 605"/>
  <text x="316" y="585" style="font-size:13px">4,84</text>
  <path class="p4" d="M 343 605 L 395 605 L 395 553 L 343 553 L 343 605"/>
  <text x="369" y="585" style="font-size:13px">4,85</text>
  <path class="p4" d="M 290 553 L 343 553 L 343 500 L 290 500 L 290 553"/>
  <text x="316" y="533" style="font-size:13px">4,86</text>
  <path class="p4" d="M 343 553 L 395 553 L 395 500 L 343 500 L 343 553"/>
  <text x="369" y="533" style="font-size:13px">4,87</text>
  <path class="p4" d="M 710 710 L 763 710 L 763 658 L 710 658 L 710 710"/>
  <text x="736" y="690" style="font-size:13px">4,88</text>
  <path class="p4" d="M 763 710 L 815 710 L 815 658 L 763 658 L 763 710"/>
  <text x="789" y="690" style="font-size:13px">4,89</text>
  <path class="p4" d="M 710 658 L 763 658 L 763 605 L 710 605 L 710 658"/>
  <text x="736" y="638" style="font-size:13px">4,90</text>
  <path class="p4" d="M 763 658 L 815 658 L 815 605 L 763 605 L 763 658"/>
  <text x="789" y="638" style="font-size:13px">4,91</text>
  <path class="p4" d="M 290 290 L 343 290 L 343 238 L 290 238 L 290 290"/>
  <text x="316" y="270" style="font-size:13px">4,92</text>
  <path class="p4" d="M 343 290 L 395 290 L 395 238 L 343 238 L 343 290"/>
  <text x="369" y="270" style="font-size:13px">4,93</text>
  <path class="p4" d="M 290 238 L 343 238 L 343 185 L 290 185 L 290 238"/>
  <text x="316" y="218" style="font-size:13px">4,94</text>
  <path class="p4" d="M 343 238 L 395 238 L 395 185 L 343 185 L 343 238"/>
  <text x="369" y="218" style="font-size:13px">4,95</text>
  <path class="p4" d="M 815 500 L 868 500 L 868 448 L 815 448 L 815 500"/>
  <text x="841" y="480" style="font-size:13px">4,96</text>
  <path class="p4" d="M 868 500 L 920 500 L 920 448 L 868 448 L 868 500"/>
  <text x="894" y="480" style="font-size:12px">4,97</text>
  <line x1="920" y1="500" x2="920" y2="448"/>
  <path class="p4" d="M 815 448 L 868 448 L 868 395 L 815 395 L 815 448"/>
  <text x="841" y="428" style="font-size:13px">4,98</text>
  <path class="p4" d="M 868 448 L 920 448 L 920 395 L 868 395 L 868 448"/>
  <text x="894" y="427" style="font-size:12px">4,99</text>
  <line x1="920" y1="448" x2="920" y2="395"/>
  <path class="p4" d="M 815 395 L 868 395 L 868 343 L 815 343 L 815 395"/>
  <text x="841" y="375" style="font-size:13px">4,100</text>
  <path class="p4" d="M 868 395 L 920 395 L 920 343 L 868 343 L 868 395"/>
  <text x="894" y="375" style="font-size:12px">4,101</text>
  <line x1="920" y1="395" x2="920" y2="343"/>
  <path class="p4" d="M 815 343 L 868 343 L 868 290 L 815 290 L 815 343"/>
  <text x="841" y="322" style="font-size:12px">4,102</text>
  <path class="p4" d="M 868 343 L 920 343 L 920 290 L 868 290 L 868 343"/>
  <text x="894" y="322" style="font-size:12px">4,103</text>
  <line x1="920" y1="343" x2="920" y2="290"/>
  <path class="p4" d="M 500 185 L 553 185 L 553 133 L 500 133 L 500 185"/>
  <text x="526" y="165" style="font-size:13px">4,104</text>
  <path class="p4" d="M 553 185 L 605 185 L 605 133 L 553 133 L 553 185"/>
  <text x="579" y="165" style="font-size:13px">4,105</text>
  <path class="p4" d="M 500 133 L 553 133 L 553 80 L 500 80 L 500 133"/>
  <text x="526" y="112" style="font-size:12px">4,106</text>
  <line x1="500" y1="80" x2="553" y2="80"/>
  <path class="p4" d="M 553 133 L 605 133 L 605 80 L 553 80 L 553 133"/>
  <text x="579" y="112" style="font-size:12px">4,107</text>
  <line x1="553" y1="80" x2="605" y2="80"/>
  <path class="p4" d="M 605 185 L 658 185 L 658 133 L 605 133 L 605 185"/>
  <text x="631" y="165" style="font-size:13px">4,108</text>
  <path class="p4" d="M 658 185 L 710 185 L 710 133 L 658 133 L 658 185"/>
  <text x="684" y="165" style="font-size:12px">4,109</text>
  <path class="p4" d="M 605 133 L 658 133 L 658 80 L 605 80 L 605 133"/>
  <text x="631" y="112" style="font-size:12px">4,110</text>
  <line x1="605" y1="80" x2="658" y2="80"/>
  <path class="p4" d="M 658 133 L 710 133 L 710 80 L 658 80 L 658 133"/>
  <text x="684" y="112" style="font-size:12px">4,111</text>
  <line x1="658" y1="80" x2="710" y2="80"/>
  <path class="p5" d="M 474 526 L 500 526 L 500 500 L 474 500 L 474 526"/>
  <text x="487" y="517" style="font-size:7px">5,3</text>
  <path class="p5" d="M 500 605 L 526 605 L 526 579 L 500 579 L 500 605"/>
  <text x="513" y="595" style="font-size:7px">5,4</text>
  <path class="p5" d="M 526 605 L 553 605 L 553 579 L 526 579 L 526 605"/>
  <text x="539" y="595" style="font-size:7px">5,5</text>
  <path class="p5" d="M 553 605 L 579 605 L 579 579 L 553 579 L 553 605"/>
  <text x="566" y="595" style="font-size:7px">5,8</text>
  <path class="p5" d="M 579 605 L 605 605 L 605 579 L 579 579 L 579 605"/>
  <text x="592" y="595" style="font-size:7px">5,9</text>
  <path class="p5" d="M 526 553 L 553 553 L 553 526 L 526 526 L 526 553"/>
  <text x="539" y="543" style="font-size:7px">5,13</text>
  <path class="p5" d="M 500 526 L 526 526 L 526 500 L 500 500 L 500 526"/>
  <text x="513" y="517" style="font-size:7px">5,14</text>
  <path class="p5" d="M 526 526 L 553 526 L 553 500 L 526 500 L 526 526"/>
  <text x="539" y="517" style="font-size:7px">5,15</text>
  <path class="p5" d="M 605 605 L 631 605 L 631 579 L 605 579 L 605 605"/>
  <text x="618" y="595" style="font-size:7px">5,16</text>
  <path class="p5" d="M 631 605 L 658 605 L 658 579 L 631 579 L 631 605"/>
  <text x="644" y="595" style="font-size:7px">5,17</text>
  <path class="p5" d="M 658 605 L 684 605 L 684 579 L 658 579 L 658 605"/>
  <text x="671" y="595" style="font-size:7px">5,20</text>
  <path class="p5" d="M 684 605 L 710 605 L 710 579 L 684 579 L 684 605"/>
  <text x="697" y="595" style="font-size:6px">5,21</text>
  <path class="p5" d="M 684 579 L 710 579 L 710 553 L 684 553 L 684 579"/>
  <text x="697" y="569" style="font-size:7px">5,23</text>
  <path class="p5" d="M 658 526 L 684 526 L 684 500 L 658 500 L 658 526"/>
  <text x="671" y="517" style="font-size:7px">5,26</text>
  <path class="p5" d="M 684 526 L 710 526 L 710 500 L 684 500 L 684 526"/>
  <text x="697" y="517" style="font-size:7px">5,27</text>
  <path class="p5" d="M 736 553 L 763 553 L 763 526 L 736 526 L 736 553"/>
  <text x="749" y="542" style="font-size:6px">5,29</text>
  <path class="p5" d="M 736 526 L 763 526 L 763 500 L 736 500 L 736 526"/>
  <text x="749" y="516" style="font-size:6px">5,31</text>
  <path class="p5" d="M 395 500 L 421 500 L 421 474 L 395 474 L 395 500"/>
  <text x="408" y="490" style="font-size:7px">5,32</text>
  <path class="p5" d="M 395 474 L 421 474 L 421 448 L 395 448 L 395 474"/>
  <text x="408" y="464" style="font-size:7px">5,34</text>
  <path class="p5" d="M 474 500 L 500 500 L 500 474 L 474 474 L 474 500"/>
  <text x="487" y="490" style="font-size:7px">5,37</text>
  <path class="p5" d="M 448 474 L 474 474 L 474 448 L 448 448 L 448 474"/>
  <text x="461" y="464" style="font-size:7px">5,38</text>
  <path class="p5" d="M 474 474 L 500 474 L 500 448 L 474 448 L 474 474"/>
  <text x="487" y="464" style="font-size:7px">5,39</text>
  <path class="p5" d="M 395 448 L 421 448 L 421 421 L 395 421 L 395 448"/>
  <text x="408" y="438" style="font-size:7px">5,40</text>
  <path class="p5" d="M 395 421 L 421 421 L 421 395 L 395 395 L 395 421"/>
  <text x="408" y="412" style="font-size:7px">5,42</text>
  <path class="p5" d="M 395 395 L 421 395 L 421 369 L 395 369 L 395 395"/>
  <text x="408" y="385" style="font-size:7px">5,44</text>
  <path class="p5" d="M 395 369 L 421 369 L 421 343 L 395 343 L 395 369"/>
  <text x="408" y="359" style="font-size:7px">5,46</text>
  <path class="p5" d="M 395 343 L 421 343 L 421 316 L 395 316 L 395 343"/>
  <text x="408" y="333" style="font-size:7px">5,48</text>
  <path class="p5" d="M 395 316 L 421 316 L 421 290 L 395 290 L 395 316"/>
  <text x="408" y="306" style="font-size:6px">5,50</text>
  <path class="p5" d="M 421 316 L 448 316 L 448 290 L 421 290 L 421 316"/>
  <text x="434" y="307" style="font-size:7px">5,51</text>
  <path class="p5" d="M 474 343 L 500 343 L 500 316 L 474 316 L 474 343"/>
  <text x="487" y="333" style="font-size:7px">5,53</text>
  <path class="p5" d="M 474 316 L 500 316 L 500 290 L 474 290 L 474 316"/>
  <text x="487" y="307" style="font-size:7px">5,55</text>
  <path class="p5" d="M 448 264 L 474 264 L 474 238 L 448 238 L 448 264"/>
  <text x="461" y="254" style="font-size:6px">5,58</text>
  <path class="p5" d="M 474 264 L 500 264 L 500 238 L 474 238 L 474 264"/>
  <text x="487" y="254" style="font-size:6px">5,59</text>
  <path class="p5" d="M 710 474 L 736 474 L 736 448 L 710 448 L 710 474"/>
  <text x="723" y="464" style="font-size:6px">5,62</text>
  <path class="p5" d="M 710 448 L 736 448 L 736 421 L 710 421 L 710 448"/>
  <text x="723" y="437" style="font-size:6px">5,64</text>
  <path class="p5" d="M 710 421 L 736 421 L 736 395 L 710 395 L 710 421"/>
  <text x="723" y="411" style="font-size:6px">5,66</text>
  <path class="p5" d="M 710 395 L 736 395 L 736 369 L 710 369 L 710 395"/>
  <text x="723" y="385" style="font-size:6px">5,68</text>
  <path class="p5" d="M 710 369 L 736 369 L 736 343 L 710 343 L 710 369"/>
  <text x="723" y="359" style="font-size:6px">5,70</text>
  <path class="p5" d="M 736 316 L 763 316 L 763 290 L 736 290 L 736 316"/>
  <text x="749" y="306" style="font-size:6px">5,75</text>
  <path class="p5" d="M 526 290 L 553 290 L 553 264 L 526 264 L 526 290"/>
  <text x="539" y="280" style="font-size:6px">5,77</text>
  <path class="p5" d="M 553 290 L 579 290 L 579 264 L 553 264 L 553 290"/>
  <text x="566" y="280" style="font-size:6px">5,80</text>
  <path class="p5" d="M 579 290 L 605 290 L 605 264 L 579 264 L 579 290"/>
  <text x="592" y="280" style="font-size:6px">5,81</text>
  <path class="p5" d="M 605 290 L 631 290 L 631 264 L 605 264 L 605 290"/>
  <text x="618" y="280" style="font-size:6px">5,84</text>
  <path class="p5" d="M 631 290 L 658 290 L 658 264 L 631 264 L 631 290"/>
  <text x="644" y="280" style="font-size:6px">5,85</text>
  <path class="p5" d="M 684 264 L 710 264 L 710 238 L 684 238 L 684 264"/>
  <text x="697" y="254" style="font-size:6px">5,91</text>
  <path class="p5" d="M 736 290 L 763 290 L 763 264 L 736 264 L 736 290"/>
  <text x="749" y="280" style="font-size:6px">5,93</text>
  <path class="p5" d="M 710 264 L 736 264 L 736 238 L 710 238 L 710 264"/>
  <text x="723" y="254" style="font-size:6px">5,94</text>
  <path class="p5" d="M 736 264 L 763 264 L 763 238 L 736 238 L 736 264"/>
  <text x="749" y="254" style="font-size:6px">5,95</text>
  <path class="p5" d="M 448 605 L 474 605 L 474 579 L 448 579 L 448 605"/>
  <text x="461" y="595" style="font-size:7px">5,96</text>
  <path class="p5" d="M 474 605 L 500 605 L 500 579 L 474 579 L 474 605"/>
  <text x="487" y="595" style="font-size:7px">5,97</text>
  <path class="p5" d="M 448 579 L 474 579 L 474 553 L 448 553 L 448 579"/>
  <text x="461" y="569" style="font-size:7px">5,98</text>
  <path class="p5" d="M 474 579 L 500 579 L 500 553 L 474 553 L 474 579"/>
  <text x="487" y="569" style="font-size:7px">5,99</text>
  <path class="p5" d="M 395 553 L 421 553 L 421 526 L 395 526 L 395 553"/>
  <text x="408" y="543" style="font-size:7px">5,100</text>
  <path class="p5" d="M 421 553 L 448 553 L 448 526 L 421 526 L 421 553"/>
  <text x="434" y="543" style="font-size:7px">5,101</text>
  <path class="p5" d="M 395 526 L 421 526 L 421 500 L 395 500 L 395 526"/>
  <text x="408" y="517" style="font-size:7px">5,102</text>
  <path class="p5" d="M 421 526 L 448 526 L 448 500 L 421 500 L 421 526"/>
  <text x="434" y="517" style="font-size:7px">5,103</text>
  <path class="p5" d="M 553 553 L 579 553 L 579 526 L 553 526 L 553 553"/>
  <text x="566" y="543" style="font-size:7px">5,104</text>
  <path class="p5" d="M 579 553 L 605 553 L 605 526 L 579 526 L 579 553"/>
  <text x="592" y="543" style="font-size:7px">5,105</text>
  <path class="p5" d="M 553 526 L 579 526 L 579 500 L 553 500 L 553 526"/>
  <text x="566" y="517" style="font-size:7px">5,106</text>
  <path class="p5" d="M 579 526 L 605 526 L 605 500 L 579 500 L 579 526"/>
  <text x="592" y="517" style="font-size:7px">5,107</text>
  <path class="p5" d="M 605 553 L 631 553 L 631 526 L 605 526 L 605 553"/>
  <text x="618" y="543" style="font-size:7px">5,108</text>
  <path class="p5" d="M 631 553 L 658 553 L 658 526 L 631 526 L 631 553"/>
  <text x="644" y="543" style="font-size:7px">5,109</text>
  <path class="p5" d="M 605 526 L 631 526 L 631 500 L 605 500 L 605 526"/>
  <text x="618" y="517" style="font-size:7px">5,110</text>
  <path class="p5" d="M 631 526 L 658 526 L 658 500 L 631 500 L 631 526"/>
  <text x="644" y="517" style="font-size:7px">5,111</text>
  <path class="p5" d="M 710 605 L 736 605 L 736 579 L 710 579 L 710 605"/>
  <text x="723" y="595" style="font-size:6px">5,112</text>
  <path class="p5" d="M 736 605 L 763 605 L 763 579 L 736 579 L 736 605"/>
  <text x="749" y="595" style="font-size:6px">5,113</text>
  <path class="p5" d="M 710 579 L 736 579 L 736 553 L 710 553 L 710 579"/>
  <text x="723" y="569" style="font-size:6px">5,114</text>
  <path class="p5" d="M 736 579 L 763 579 L 763 553 L 736 553 L 736 579"/>
  <text x="749" y="569" style="font-size:6px">5,115</text>
  <path class="p5" d="M 448 448 L 474 448 L 474 421 L 448 421 L 448 448"/>
  <text x="461" y="438" style="font-size:7px">5,116</text>
  <path class="p5" d="M 474 448 L 500 448 L 500 421 L 474 421 L 474 448"/>
  <text x="487" y="438" style="font-size:7px">5,117</text>
  <path class="p5" d="M 448 421 L 474 421 L 474 395 L 448 395 L 448 421"/>
  <text x="461" y="412" style="font-size:7px">5,118</text>
  <path class="p5" d="M 474 421 L 500 421 L 500 395 L 474 395 L 474 421"/>
  <text x="487" y="412" style="font-size:7px">5,119</text>
  <path class="p5" d="M 448 395 L 474 395 L 474 369 L 448 369 L 448 395"/>
  <text x="461" y="385" style="font-size:7px">5,120</text>
  <path class="p5" d="M 474 395 L 500 395 L 500 369 L 474 369 L 474 395"/>
  <text x="487" y="385" style="font-size:7px">5,121</text>
  <path class="p5" d="M 448 369 L 474 369 L 474 343 L 448 343 L 448 369"/>
  <text x="461" y="359" style="font-size:7px">5,122</text>
  <path class="p5" d="M 474 369 L 500 369 L 500 343 L 474 343 L 474 369"/>
  <text x="487" y="359" style="font-size:7px">5,123</text>
  <path class="p5" d="M 395 290 L 421 290 L 421 264 L 395 264 L 395 290"/>
  <text x="408" y="280" style="font-size:6px">5,124</text>
  <path class="p5" d="M 421 290 L 448 290 L 448 264 L 421 264 L 421 290"/>
  <text x="434" y="280" style="font-size:6px">5,125</text>
  <path class="p5" d="M 395 264 L 421 264 L 421 238 L 395 238 L 395 264"/>
  <text x="408" y="254" style="font-size:6px">5,126</text>
  <path class="p5" d="M 421 264 L 448 264 L 448 238 L 421 238 L 421 264"/>
  <text x="434" y="254" style="font-size:6px">5,127</text>
  <path class="p5" d="M 763 500 L 789 500 L 789 474 L 763 474 L 763 500"/>
  <text x="776" y="490" style="font-size:6px">5,128</text>
  <path class="p5" d="M 789 500 L 815 500 L 815 474 L 789 474 L 789 500"/>
  <text x="802" y="490" style="font-size:6px">5,129</text>
  <path class="p5" d="M 763 474 L 789 474 L 789 448 L 763 448 L 763 474"/>
  <text x="776" y="464" style="font-size:6px">5,130</text>
  <path class="p5" d="M 789 474 L 815 474 L 815 448 L 789 448 L 789 474"/>
  <text x="802" y="464" style="font-size:6px">5,131</text>
  <path class="p5" d="M 763 448 L 789 448 L 789 421 L 763 421 L 763 448"/>
  <text x="776" y="437" style="font-size:6px">5,132</text>
  <path class="p5" d="M 789 448 L 815 448 L 815 421 L 789 421 L 789 448"/>
  <text x="802" y="437" style="font-size:6px">5,133</text>
  <path class="p5" d="M 763 421 L 789 421 L 789 395 L 763 395 L 763 421"/>
  <text x="776" y="411" style="font-size:6px">5,134</text>
  <path class="p5" d="M 789 421 L 815 421 L 815 395 L 789 395 L 789 421"/>
  <text x="802" y="411" style="font-size:6px">5,135</text>
  <path class="p5" d="M 763 395 L 789 395 L 789 369 L 763 369 L 763 395"/>
  <text x="776" y="385" style="font-size:6px">5,136</text>
  <path class="p5" d="M 789 395 L 815 395 L 815 369 L 789 369 L 789 395"/>
  <text x="802" y="385" style="font-size:6px">5,137</text>
  <path class="p5" d="M 763 369 L 789 369 L 789 343 L 763 343 L 763 369"/>
  <text x="776" y="359" style="font-size:6px">5,138</text>
  <path class="p5" d="M 789 369 L 815 369 L 815 343 L 789 343 L 789 369"/>
  <text x="802" y="359" style="font-size:6px">5,139</text>
  <path class="p5" d="M 763 343 L 789 343 L 789 316 L 763 316 L 763 343"/>
  <text x="776" y="332" style="font-size:6px">5,140</text>
  <path class="p5" d="M 789 343 L 815 343 L 815 316 L 789 316 L 789 343"/>
  <text x="802" y="332" style="font-size:6px">5,141</text>
  <path class="p5" d="M 763 316 L 789 316 L 789 290 L 763 290 L 763 316"/>
  <text x="776" y="306" style="font-size:6px">5,142</text>
  <path class="p5" d="M 789 316 L 815 316 L 815 290 L 789 290 L 789 316"/>
  <text x="802" y="306" style="font-size:6px">5,143</text>
  <path class="p5" d="M 500 238 L 526 238 L 526 211 L 500 211 L 500 238"/>
  <text x="513" y="227" style="font-size:6px">5,144</text>
  <path class="p5" d="M 526 238 L 553 238 L 553 211 L 526 211 L 526 238"/>
  <text x="539" y="227" style="font-size:6px">5,145</text>
  <path class="p5" d="M 500 211 L 526 211 L 526 185 L 500 185 L 500 211"/>
  <text x="513" y="201" style="font-size:6px">5,146</text>
  <path class="p5" d="M 526 211 L 553 211 L 553 185 L 526 185 L 526 211"/>
  <text x="539" y="201" style="font-size:6px">5,147</text>
  <path class="p5" d="M 553 238 L 579 238 L 579 211 L 553 211 L 553 238"/>
  <text x="566" y="227" style="font-size:6px">5,148</text>
  <path class="p5" d="M 579 238 L 605 238 L 605 211 L 579 211 L 579 238"/>
  <text x="592" y="227" style="font-size:6px">5,149</text>
  <path class="p5" d="M 553 211 L 579 211 L 579 185 L 553 185 L 553 211"/>
  <text x="566" y="201" style="font-size:6px">5,150</text>
  <path class="p5" d="M 579 211 L 605 211 L 605 185 L 579 185 L 579 211"/>
  <text x="592" y="201" style="font-size:6px">5,151</text>
  <path class="p5" d="M 605 238 L 631 238 L 631 211 L 605 211 L 605 238"/>
  <text x="618" y="227" style="font-size:6px">5,152</text>
  <path class="p5" d="M 631 238 L 658 238 L 658 211 L 631 211 L 631 238"/>
  <text x="644" y="227" style="font-size:6px">5,153</text>
  <path class="p5" d="M 605 211 L 631 211 L 631 185 L 605 185 L 605 211"/>
  <text x="618" y="201" style="font-size:6px">5,154</text>
  <path class="p5" d="M 631 211 L 658 211 L 658 185 L 631 185 L 631 211"/>
  <text x="644" y="201" style="font-size:6px">5,155</text>
  <path class="p5" d="M 658 238 L 684 238 L 684 211 L 658 211 L 658 238"/>
  <text x="671" y="227" style="font-size:6px">5,156</text>
  <path class="p5" d="M 684 238 L 710 238 L 710 211 L 684 211 L 684 238"/>
  <text x="697" y="227" style="font-size:6px">5,157</text>
  <path class="p5" d="M 658 211 L 684 211 L 684 185 L 658 185 L 658 211"/>
  <text x="671" y="201" style="font-size:6px">5,158</text>
  <path class="p5" d="M 684 211 L 710 211 L 710 185 L 684 185 L 684 211"/>
  <text x="697" y="201" style="font-size:6px">5,159</text>
  <path class="p5" d="M 658 500 L 684 500 L 684 474 L 658 474 L 658 500"/>
  <text x="671" y="490" style="font-size:7px">5,160</text>
  <path class="p5" d="M 684 500 L 710 500 L 710 474 L 684 474 L 684 500"/>
  <text x="697" y="490" style="font-size:7px">5,161</text>
  <path class="p5" d="M 658 474 L 684 474 L 684 448 L 658 448 L 658 474"/>
  <text x="671" y="464" style="font-size:7px">5,162</text>
  <path class="p5" d="M 684 474 L 710 474 L 710 448 L 684 448 L 684 474"/>
  <text x="697" y="464" style="font-size:7px">5,163</text>
  <path class="p5" d="M 500 343 L 526 343 L 526 316 L 500 316 L 500 343"/>
  <text x="513" y="333" style="font-size:7px">5,164</text>
  <path class="p5" d="M 526 343 L 553 343 L 553 316 L 526 316 L 526 343"/>
  <text x="539" y="333" style="font-size:7px">5,165</text>
  <path class="p5" d="M 500 316 L 526 316 L 526 290 L 500 290 L 500 316"/>
  <text x="513" y="307" style="font-size:7px">5,166</text>
  <path class="p5" d="M 526 316 L 553 316 L 553 290 L 526 290 L 526 316"/>
  <text x="539" y="307" style="font-size:7px">5,167</text>
  <path class="p5" d="M 658 343 L 684 343 L 684 316 L 658 316 L 658 343"/>
  <text x="671" y="332" style="font-size:6px">5,168</text>
  <path class="p5" d="M 684 343 L 710 343 L 710 316 L 684 316 L 684 343"/>
  <text x="697" y="332" style="font-size:6px">5,169</text>
  <path class="p5" d="M 658 316 L 684 316 L 684 290 L 658 290 L 658 316"/>
  <text x="671" y="306" style="font-size:6px">5,170</text>
  <path class="p5" d="M 684 316 L 710 316 L 710 290 L 684 290 L 684 316"/>
  <text x="697" y="306" style="font-size:6px">5,171</text>
  <path class="p6" d="M 448 553 L 461 553 L 461 539 L 448 539 L 448 553"/>
  <text x="454" y="547" style="font-size:3px">6,0</text>
  <path class="p6" d="M 461 553 L 474 553 L 474 539 L 461 539 L 461 553"/>
  <text x="467" y="547" style="font-size:3px">6,1</text>
  <path class="p6" d="M 448 539 L 461 539 L 461 526 L 448 526 L 448 539"/>
  <text x="454" y="534" style="font-size:3px">6,2</text>
  <path class="p6" d="M 461 539 L 474 539 L 474 526 L 461 526 L 461 539"/>
  <text x="467" y="534" style="font-size:3px">6,3</text>
  <path class="p6" d="M 474 553 L 487 553 L 487 539 L 474 539 L 474 553"/>
  <text x="480" y="547" style="font-size:3px">6,4</text>
  <path class="p6" d="M 487 553 L 500 553 L 500 539 L 487 539 L 487 553"/>
  <text x="493" y="547" style="font-size:3px">6,5</text>
  <path class="p6" d="M 474 539 L 487 539 L 487 526 L 474 526 L 474 539"/>
  <text x="480" y="534" style="font-size:3px">6,6</text>
  <path class="p6" d="M 487 539 L 500 539 L 500 526 L 487 526 L 487 539"/>
  <text x="493" y="534" style="font-size:3px">6,7</text>
  <path class="p6" d="M 448 526 L 461 526 L 461 513 L 448 513 L 448 526"/>
  <text x="454" y="521" style="font-size:3px">6,8</text>
  <path class="p6" d="M 461 526 L 474 526 L 474 513 L 461 513 L 461 526"/>
  <text x="467" y="521" style="font-size:3px">6,9</text>
  <path class="p6" d="M 448 513 L 461 513 L 461 500 L 448 500 L 448 513"/>
  <text x="454" y="508" style="font-size:3px">6,10</text>
  <path class="p6" d="M 461 513 L 474 513 L 474 500 L 461 500 L 461 513"/>
  <text x="467" y="508" style="font-size:3px">6,11</text>
  <path class="p6" d="M 500 579 L 513 579 L 513 566 L 500 566 L 500 579"/>
  <text x="507" y="574" style="font-size:3px">6,12</text>
  <path class="p6" d="M 513 579 L 526 579 L 526 566 L 513 566 L 513 579"/>
  <text x="520" y="574" style="font-size:3px">6,13</text>
  <path class="p6" d="M 500 566 L 513 566 L 513 553 L 500 553 L 500 566"/>
  <text x="507" y="561" style="font-size:3px">6,14</text>
  <path class="p6" d="M 513 566 L 526 566 L 526 553 L 513 553 L 513 566"/>
  <text x="520" y="561" style="font-size:3px">6,15</text>
  <path class="p6" d="M 526 579 L 539 579 L 539 566 L 526 566 L 526 579"/>
  <text x="533" y="574" style="font-size:3px">6,16</text>
  <path class="p6" d="M 539 579 L 553 579 L 553 566 L 539 566 L 539 579"/>
  <text x="546" y="574" style="font-size:3px">6,17</text>
  <path class="p6" d="M 526 566 L 539 566 L 539 553 L 526 553 L 526 566"/>
  <text x="533" y="561" style="font-size:3px">6,18</text>
  <path class="p6" d="M 539 566 L 553 566 L 553 553 L 539 553 L 539 566"/>
  <text x="546" y="561" style="font-size:3px">6,19</text>
  <path class="p6" d="M 553 579 L 566 579 L 566 566 L 553 566 L 553 579"/>
  <text x="559" y="574" style="font-size:3px">6,20</text>
  <path class="p6" d="M 566 579 L 579 579 L 579 566 L 566 566 L 566 579"/>
  <text x="572" y="574" style="font-size:3px">6,21</text>
  <path class="p6" d="M 553 566 L 566 566 L 566 553 L 553 553 L 553 566"/>
  <text x="559" y="561" style="font-size:3px">6,22</text>
  <path class="p6" d="M 566 566 L 579 566 L 579 553 L 566 553 L 566 566"/>
  <text x="572" y="561" style="font-size:3px">6,23</text>
  <path class="p6" d="M 579 579 L 592 579 L 592 566 L 579 566 L 579 579"/>
  <text x="585" y="574" style="font-size:3px">6,24</text>
  <path class="p6" d="M 592 579 L 605 579 L 605 566 L 592 566 L 592 579"/>
  <text x="598" y="574" style="font-size:3px">6,25</text>
  <path class="p6" d="M 579 566 L 592 566 L 592 553 L 579 553 L 579 566"/>
  <text x="585" y="561" style="font-size:3px">6,26</text>
  <path class="p6" d="M 592 566 L 605 566 L 605 553 L 592 553 L 592 566"/>
  <text x="598" y="561" style="font-size:3px">6,27</text>
  <path class="p6" d="M 500 553 L 513 553 L 513 539 L 500 539 L 500 553"/>
  <text x="507" y="547" style="font-size:3px">6,28</text>
  <path class="p6" d="M 513 553 L 526 553 L 526 539 L 513 539 L 513 553"/>
  <text x="520" y="547" style="font-size:3px">6,29</text>
  <path class="p6" d="M 500 539 L 513 539 L 513 526 L 500 526 L 500 539"/>
  <text x="507" y="534" style="font-size:3px">6,30</text>
  <path class="p6" d="M 513 539 L 526 539 L 526 526 L 513 526 L 513 539"/>
  <text x="520" y="534" style="font-size:3px">6,31</text>
  <path class="p6" d="M 605 579 L 618 579 L 618 566 L 605 566 L 605 579"/>
  <text x="612" y="574" style="font-size:3px">6,32</text>
  <path class="p6" d="M 618 579 L 631 579 L 631 566 L 618 566 L 618 579"/>
  <text x="625" y="574" style="font-size:3px">6,33</text>
  <path class="p6" d="M 605 566 L 618 566 L 618 553 L 605 553 L 605 566"/>
  <text x="612" y="561" style="font-size:3px">6,34</text>
  <path class="p6" d="M 618 566 L 631 566 L 631 553 L 618 553 L 618 566"/>
  <text x="625" y="561" style="font-size:3px">6,35</text>
  <path class="p6" d="M 631 579 L 644 579 L 644 566 L 631 566 L 631 579"/>
  <text x="638" y="574" style="font-size:3px">6,36</text>
  <path class="p6" d="M 644 579 L 658 579 L 658 566 L 644 566 L 644 579"/>
  <text x="651" y="574" style="font-size:3px">6,37</text>
  <path class="p6" d="M 631 566 L 644 566 L 644 553 L 631 553 L 631 566"/>
  <text x="638" y="561" style="font-size:3px">6,38</text>
  <path class="p6" d="M 644 566 L 658 566 L 658 553 L 644 553 L 644 566"/>
  <text x="651" y="561" style="font-size:3px">6,39</text>
  <path class="p6" d="M 658 579 L 671 579 L 671 566 L 658 566 L 658 579"/>
  <text x="664" y="574" style="font-size:3px">6,40</text>
  <path class="p6" d="M 671 579 L 684 579 L 684 566 L 671 566 L 671 579"/>
  <text x="677" y="574" style="font-size:3px">6,41</text>
  <path class="p6" d="M 658 566 L 671 566 L 671 553 L 658 553 L 658 566"/>
  <text x="664" y="561" style="font-size:3px">6,42</text>
  <path class="p6" d="M 671 566 L 684 566 L 684 553 L 671 553 L 671 566"/>
  <text x="677" y="561" style="font-size:3px">6,43</text>
  <path class="p6" d="M 658 553 L 671 553 L 671 539 L 658 539 L 658 553"/>
  <text x="664" y="547" style="font-size:3px">6,44</text>
  <path class="p6" d="M 671 553 L 684 553 L 684 539 L 671 539 L 671 553"/>
  <text x="677" y="547" style="font-size:3px">6,45</text>
  <path class="p6" d="M 658 539 L 671 539 L 671 526 L 658 526 L 658 539"/>
  <text x="664" y="534" style="font-size:3px">6,46</text>
  <path class="p6" d="M 671 539 L 684 539 L 684 526 L 671 526 L 671 539"/>
  <text x="677" y="534" style="font-size:3px">6,47</text>
  <path class="p6" d="M 684 553 L 697 553 L 697 539 L 684 539 L 684 553"/>
  <text x="690" y="547" style="font-size:3px">6,48</text>
  <path class="p6" d="M 697 553 L 710 553 L 710 539 L 697 539 L 697 553"/>
  <text x="703" y="547" style="font-size:3px">6,49</text>
  <path class="p6" d="M 684 539 L 697 539 L 697 526 L 684 526 L 684 539"/>
  <text x="690" y="534" style="font-size:3px">6,50</text>
  <path class="p6" d="M 697 539 L 710 539 L 710 526 L 697 526 L 697 539"/>
  <text x="703" y="534" style="font-size:3px">6,51</text>
  <path class="p6" d="M 710 553 L 723 553 L 723 539 L 710 539 L 710 553"/>
  <text x="717" y="547" style="font-size:3px">6,52</text>
  <path class="p6" d="M 723 553 L 736 553 L 736 539 L 723 539 L 723 553"/>
  <text x="730" y="547" style="font-size:3px">6,53</text>
  <path class="p6" d="M 710 539 L 723 539 L 723 526 L 710 526 L 710 539"/>
  <text x="717" y="534" style="font-size:3px">6,54</text>
  <path class="p6" d="M 723 539 L 736 539 L 736 526 L 723 526 L 723 539"/>
  <text x="730" y="534" style="font-size:3px">6,55</text>
  <path class="p6" d="M 710 526 L 723 526 L 723 513 L 710 513 L 710 526"/>
  <text x="717" y="521" style="font-size:3px">6,56</text>
  <path class="p6" d="M 723 526 L 736 526 L 736 513 L 723 513 L 723 526"/>
  <text x="730" y="521" style="font-size:3px">6,57</text>
  <path class="p6" d="M 710 513 L 723 513 L 723 500 L 710 500 L 710 513"/>
  <text x="717" y="508" style="font-size:3px">6,58</text>
  <path class="p6" d="M 723 513 L 736 513 L 736 500 L 723 500 L 723 513"/>
  <text x="730" y="508" style="font-size:3px">6,59</text>
  <path class="p6" d="M 421 500 L 434 500 L 434 487 L 421 487 L 421 500"/>
  <text x="428" y="495" style="font-size:3px">6,60</text>
  <path class="p6" d="M 434 500 L 448 500 L 448 487 L 434 487 L 434 500"/>
  <text x="441" y="495" style="font-size:3px">6,61</text>
  <path class="p6" d="M 421 487 L 434 487 L 434 474 L 421 474 L 421 487"/>
  <text x="428" y="482" style="font-size:3px">6,62</text>
  <path class="p6" d="M 434 487 L 448 487 L 448 474 L 434 474 L 434 487"/>
  <text x="441" y="482" style="font-size:3px">6,63</text>
  <path class="p6" d="M 421 474 L 434 474 L 434 461 L 421 461 L 421 474"/>
  <text x="428" y="469" style="font-size:3px">6,64</text>
  <path class="p6" d="M 434 474 L 448 474 L 448 461 L 434 461 L 434 474"/>
  <text x="441" y="469" style="font-size:3px">6,65</text>
  <path class="p6" d="M 421 461 L 434 461 L 434 448 L 421 448 L 421 461"/>
  <text x="428" y="456" style="font-size:3px">6,66</text>
  <path class="p6" d="M 434 461 L 448 461 L 448 448 L 434 448 L 434 461"/>
  <text x="441" y="456" style="font-size:3px">6,67</text>
  <path class="p6" d="M 448 500 L 461 500 L 461 487 L 448 487 L 448 500"/>
  <text x="454" y="495" style="font-size:3px">6,68</text>
  <path class="p6" d="M 461 500 L 474 500 L 474 487 L 461 487 L 461 500"/>
  <text x="467" y="495" style="font-size:3px">6,69</text>
  <path class="p6" d="M 448 487 L 461 487 L 461 474 L 448 474 L 448 487"/>
  <text x="454" y="482" style="font-size:3px">6,70</text>
  <path class="p6" d="M 461 487 L 474 487 L 474 474 L 461 474 L 461 487"/>
  <text x="467" y="482" style="font-size:3px">6,71</text>
  <path class="p6" d="M 421 448 L 434 448 L 434 434 L 421 434 L 421 448"/>
  <text x="428" y="442" style="font-size:3px">6,72</text>
  <path class="p6" d="M 434 448 L 448 448 L 448 434 L 434 434 L 434 448"/>
  <text x="441" y="442" style="font-size:3px">6,73</text>
  <path class="p6" d="M 421 434 L 434 434 L 434 421 L 421 421 L 421 434"/>
  <text x="428" y="429" style="font-size:3px">6,74</text>
  <path class="p6" d="M 434 434 L 448 434 L 448 421 L 434 421 L 434 434"/>
  <text x="441" y="429" style="font-size:3px">6,75</text>
  <path class="p6" d="M 421 421 L 434 421 L 434 408 L 421 408 L 421 421"/>
  <text x="428" y="416" style="font-size:3px">6,76</text>
  <path class="p6" d="M 434 421 L 448 421 L 448 408 L 434 408 L 434 421"/>
  <text x="441" y="416" style="font-size:3px">6,77</text>
  <path class="p6" d="M 421 408 L 434 408 L 434 395 L 421 395 L 421 408"/>
  <text x="428" y="403" style="font-size:3px">6,78</text>
  <path class="p6" d="M 434 408 L 448 408 L 448 395 L 434 395 L 434 408"/>
  <text x="441" y="403" style="font-size:3px">6,79</text>
  <path class="p6" d="M 421 395 L 434 395 L 434 382 L 421 382 L 421 395"/>
  <text x="428" y="390" style="font-size:3px">6,80</text>
  <path class="p6" d="M 434 395 L 448 395 L 448 382 L 434 382 L 434 395"/>
  <text x="441" y="390" style="font-size:3px">6,81</text>
  <path class="p6" d="M 421 382 L 434 382 L 434 369 L 421 369 L 421 382"/>
  <text x="428" y="377" style="font-size:3px">6,82</text>
  <path class="p6" d="M 434 382 L 448 382 L 448 369 L 434 369 L 434 382"/>
  <text x="441" y="377" style="font-size:3px">6,83</text>
  <path class="p6" d="M 421 369 L 434 369 L 434 356 L 421 356 L 421 369"/>
  <text x="428" y="364" style="font-size:3px">6,84</text>
  <path class="p6" d="M 434 369 L 448 369 L 448 356 L 434 356 L 434 369"/>
  <text x="441" y="364" style="font-size:3px">6,85</text>
  <path class="p6" d="M 421 356 L 434 356 L 434 343 L 421 343 L 421 356"/>
  <text x="428" y="351" style="font-size:3px">6,86</text>
  <path class="p6" d="M 434 356 L 448 356 L 448 343 L 434 343 L 434 356"/>
  <text x="441" y="351" style="font-size:3px">6,87</text>
  <path class="p6" d="M 421 343 L 434 343 L 434 329 L 421 329 L 421 343"/>
  <text x="428" y="337" style="font-size:3px">6,88</text>
  <path class="p6" d="M 434 343 L 448 343 L 448 329 L 434 329 L 434 343"/>
  <text x="441" y="337" style="font-size:3px">6,89</text>
  <path class="p6" d="M 421 329 L 434 329 L 434 316 L 421 316 L 421 329"/>
  <text x="428" y="324" style="font-size:3px">6,90</text>
  <path class="p6" d="M 434 329 L 448 329 L 448 316 L 434 316 L 434 329"/>
  <text x="441" y="324" style="font-size:3px">6,91</text>
  <path class="p6" d="M 448 343 L 461 343 L 461 329 L 448 329 L 448 343"/>
  <text x="454" y="337" style="font-size:3px">6,92</text>
  <path class="p6" d="M 461 343 L 474 343 L 474 329 L 461 329 L 461 343"/>
  <text x="467" y="337" style="font-size:3px">6,93</text>
  <path class="p6" d="M 448 329 L 461 329 L 461 316 L 448 316 L 448 329"/>
  <text x="454" y="324" style="font-size:3px">6,94</text>
  <path class="p6" d="M 461 329 L 474 329 L 474 316 L 461 316 L 461 329"/>
  <text x="467" y="324" style="font-size:3px">6,95</text>
  <path class="p6" d="M 448 316 L 461 316 L 461 303 L 448 303 L 448 316"/>
  <text x="454" y="311" style="font-size:3px">6,96</text>
  <path class="p6" d="M 461 316 L 474 316 L 474 303 L 461 303 L 461 316"/>
  <text x="467" y="311" style="font-size:3px">6,97</text>
  <path class="p6" d="M 448 303 L 461 303 L 461 290 L 448 290 L 448 303"/>
  <text x="454" y="298" style="font-size:3px">6,98</text>
  <path class="p6" d="M 461 303 L 474 303 L 474 290 L 461 290 L 461 303"/>
  <text x="467" y="298" style="font-size:3px">6,99</text>
  <path class="p6" d="M 448 290 L 461 290 L 461 277 L 448 277 L 448 290"/>
  <text x="454" y="285" style="font-size:3px">6,100</text>
  <path class="p6" d="M 461 290 L 474 290 L 474 277 L 461 277 L 461 290"/>
  <text x="467" y="285" style="font-size:3px">6,101</text>
  <path class="p6" d="M 448 277 L 461 277 L 461 264 L 448 264 L 448 277"/>
  <text x="454" y="272" style="font-size:3px">6,102</text>
  <path class="p6" d="M 461 277 L 474 277 L 474 264 L 461 264 L 461 277"/>
  <text x="467" y="272" style="font-size:3px">6,103</text>
  <path class="p6" d="M 474 290 L 487 290 L 487 277 L 474 277 L 474 290"/>
  <text x="480" y="285" style="font-size:3px">6,104</text>
  <path class="p6" d="M 487 290 L 500 290 L 500 277 L 487 277 L 487 290"/>
  <text x="493" y="285" style="font-size:3px">6,105</text>
  <path class="p6" d="M 474 277 L 487 277 L 487 264 L 474 264 L 474 277"/>
  <text x="480" y="272" style="font-size:3px">6,106</text>
  <path class="p6" d="M 487 277 L 500 277 L 500 264 L 487 264 L 487 277"/>
  <text x="493" y="272" style="font-size:3px">6,107</text>
  <path class="p6" d="M 710 500 L 723 500 L 723 487 L 710 487 L 710 500"/>
  <text x="717" y="495" style="font-size:3px">6,108</text>
  <path class="p6" d="M 723 500 L 736 500 L 736 487 L 723 487 L 723 500"/>
  <text x="730" y="495" style="font-size:3px">6,109</text>
  <path class="p6" d="M 710 487 L 723 487 L 723 474 L 710 474 L 710 487"/>
  <text x="717" y="482" style="font-size:3px">6,110</text>
  <path class="p6" d="M 723 487 L 736 487 L 736 474 L 723 474 L 723 487"/>
  <text x="730" y="482" style="font-size:3px">6,111</text>
  <path class="p6" d="M 736 500 L 749 500 L 749 487 L 736 487 L 736 500"/>
  <text x="743" y="495" style="font-size:3px">6,112</text>
  <path class="p6" d="M 749 500 L 763 500 L 763 487 L 749 487 L 749 500"/>
  <text x="756" y="495" style="font-size:3px">6,113</text>
  <path class="p6" d="M 736 487 L 749 487 L 749 474 L 736 474 L 736 487"/>
  <text x="743" y="482" style="font-size:3px">6,114</text>
  <path class="p6" d="M 749 487 L 763 487 L 763 474 L 749 474 L 749 487"/>
  <text x="756" y="482" style="font-size:3px">6,115</text>
  <path class="p6" d="M 736 474 L 749 474 L 749 461 L 736 461 L 736 474"/>
  <text x="743" y="469" style="font-size:3px">6,116</text>
  <path class="p6" d="M 749 474 L 763 474 L 763 461 L 749 461 L 749 474"/>
  <text x="756" y="469" style="font-size:3px">6,117</text>
  <path class="p6" d="M 736 461 L 749 461 L 749 448 L 736 448 L 736 461"/>
  <text x="743" y="456" style="font-size:3px">6,118</text>
  <path class="p6" d="M 749 461 L 763 461 L 763 448 L 749 448 L 749 461"/>
  <text x="756" y="456" style="font-size:3px">6,119</text>
  <path class="p6" d="M 736 448 L 749 448 L 749 434 L 736 434 L 736 448"/>
  <text x="743" y="442" style="font-size:3px">6,120</text>
  <path class="p6" d="M 749 448 L 763 448 L 763 434 L 749 434 L 749 448"/>
  <text x="756" y="442" style="font-size:3px">6,121</text>
  <path class="p6" d="M 736 434 L 749 434 L 749 421 L 736 421 L 736 434"/>
  <text x="743" y="429" style="font-size:3px">6,122</text>
  <path class="p6" d="M 749 434 L 763 434 L 763 421 L 749 421 L 749 434"/>
  <text x="756" y="429" style="font-size:3px">6,123</text>
  <path class="p6" d="M 736 421 L 749 421 L 749 408 L 736 408 L 736 421"/>
  <text x="743" y="416" style="font-size:3px">6,124</text>
  <path class="p6" d="M 749 421 L 763 421 L 763 408 L 749 408 L 749 421"/>
  <text x="756" y="416" style="font-size:3px">6,125</text>
  <path class="p6" d="M 736 408 L 749 408 L 749 395 L 736 395 L 736 408"/>
  <text x="743" y="403" style="font-size:3px">6,126</text>
  <path class="p6" d="M 749 408 L 763 408 L 763 395 L 749 395 L 749 408"/>
  <text x="756" y="403" style="font-size:3px">6,127</text>
  <path class="p6" d="M 736 395 L 749 395 L 749 382 L 736 382 L 736 395"/>
  <text x="743" y="390" style="font-size:3px">6,128</text>
  <path class="p6" d="M 749 395 L 763 395 L 763 382 L 749 382 L 749 395"/>
  <text x="756" y="390" style="font-size:3px">6,129</text>
  <path class="p6" d="M 736 382 L 749 382 L 749 369 L 736 369 L 736 382"/>
  <text x="743" y="377" style="font-size:3px">6,130</text>
  <path class="p6" d="M 749 382 L 763 382 L 763 369 L 749 369 L 749 382"/>
  <text x="756" y="377" style="font-size:3px">6,131</text>
  <path class="p6" d="M 736 369 L 749 369 L 749 356 L 736 356 L 736 369"/>
  <text x="743" y="364" style="font-size:3px">6,132</text>
  <path class="p6" d="M 749 369 L 763 369 L 763 356 L 749 356 L 749 369"/>
  <text x="756" y="364" style="font-size:3px">6,133</text>
  <path class="p6" d="M 736 356 L 749 356 L 749 343 L 736 343 L 736 356"/>
  <text x="743" y="351" style="font-size:3px">6,134</text>
  <path class="p6" d="M 749 356 L 763 356 L 763 343 L 749 343 L 749 356"/>
  <text x="756" y="351" style="font-size:3px">6,135</text>
  <path class="p6" d="M 710 343 L 723 343 L 723 329 L 710 329 L 710 343"/>
  <text x="717" y="337" style="font-size:3px">6,136</text>
  <path class="p6" d="M 723 343 L 736 343 L 736 329 L 723 329 L 723 343"/>
  <text x="730" y="337" style="font-size:3px">6,137</text>
  <path class="p6" d="M 710 329 L 723 329 L 723 316 L 710 316 L 710 329"/>
  <text x="717" y="324" style="font-size:3px">6,138</text>
  <path class="p6" d="M 723 329 L 736 329 L 736 316 L 723 316 L 723 329"/>
  <text x="730" y="324" style="font-size:3px">6,139</text>
  <path class="p6" d="M 736 343 L 749 343 L 749 329 L 736 329 L 736 343"/>
  <text x="743" y="337" style="font-size:3px">6,140</text>
  <path class="p6" d="M 749 343 L 763 343 L 763 329 L 749 329 L 749 343"/>
  <text x="756" y="337" style="font-size:3px">6,141</text>
  <path class="p6" d="M 736 329 L 749 329 L 749 316 L 736 316 L 736 329"/>
  <text x="743" y="324" style="font-size:3px">6,142</text>
  <path class="p6" d="M 749 329 L 763 329 L 763 316 L 749 316 L 749 329"/>
  <text x="756" y="324" style="font-size:3px">6,143</text>
  <path class="p6" d="M 710 316 L 723 316 L 723 303 L 710 303 L 710 316"/>
  <text x="717" y="311" style="font-size:3px">6,144</text>
  <path class="p6" d="M 723 316 L 736 316 L 736 303 L 723 303 L 723 316"/>
  <text x="730" y="311" style="font-size:3px">6,145</text>
  <path class="p6" d="M 710 303 L 723 303 L 723 290 L 710 290 L 710 303"/>
  <text x="717" y="298" style="font-size:3px">6,146</text>
  <path class="p6" d="M 723 303 L 736 303 L 736 290 L 723 290 L 723 303"/>
  <text x="730" y="298" style="font-size:3px">6,147</text>
  <path class="p6" d="M 500 290 L 513 290 L 513 277 L 500 277 L 500 290"/>
  <text x="507" y="285" style="font-size:3px">6,148</text>
  <path class="p6" d="M 513 290 L 526 290 L 526 277 L 513 277 L 513 290"/>
  <text x="520" y="285" style="font-size:3px">6,149</text>
  <path class="p6" d="M 500 277 L 513 277 L 513 264 L 500 264 L 500 277"/>
  <text x="507" y="272" style="font-size:3px">6,150</text>
  <path class="p6" d="M 513 277 L 526 277 L 526 264 L 513 264 L 513 277"/>
  <text x="520" y="272" style="font-size:3px">6,151</text>
  <path class="p6" d="M 500 264 L 513 264 L 513 251 L 500 251 L 500 264"/>
  <text x="507" y="259" style="font-size:3px">6,152</text>
  <path class="p6" d="M 513 264 L 526 264 L 526 251 L 513 251 L 513 264"/>
  <text x="520" y="259" style="font-size:3px">6,153</text>
  <path class="p6" d="M 500 251 L 513 251 L 513 238 L 500 238 L 500 251"/>
  <text x="507" y="246" style="font-size:3px">6,154</text>
  <path class="p6" d="M 513 251 L 526 251 L 526 238 L 513 238 L 513 251"/>
  <text x="520" y="246" style="font-size:3px">6,155</text>
  <path class="p6" d="M 526 264 L 539 264 L 539 251 L 526 251 L 526 264"/>
  <text x="533" y="259" style="font-size:3px">6,156</text>
  <path class="p6" d="M 539 264 L 553 264 L 553 251 L 539 251 L 539 264"/>
  <text x="546" y="259" style="font-size:3px">6,157</text>
  <path class="p6" d="M 526 251 L 539 251 L 539 238 L 526 238 L 526 251"/>
  <text x="533" y="246" style="font-size:3px">6,158</text>
  <path class="p6" d="M 539 251 L 553 251 L 553 238 L 539 238 L 539 251"/>
  <text x="546" y="246" style="font-size:3px">6,159</text>
  <path class="p6" d="M 553 264 L 566 264 L 566 251 L 553 251 L 553 264"/>
  <text x="559" y="259" style="font-size:3px">6,160</text>
  <path class="p6" d="M 566 264 L 579 264 L 579 251 L 566 251 L 566 264"/>
  <text x="572" y="259" style="font-size:3px">6,161</text>
  <path class="p6" d="M 553 251 L 566 251 L 566 238 L 553 238 L 553 251"/>
  <text x="559" y="246" style="font-size:3px">6,162</text>
  <path class="p6" d="M 566 251 L 579 251 L 579 238 L 566 238 L 566 251"/>
  <text x="572" y="246" style="font-size:3px">6,163</text>
  <path class="p6" d="M 579 264 L 592 264 L 592 251 L 579 251 L 579 264"/>
  <text x="585" y="259" style="font-size:3px">6,164</text>
  <path class="p6" d="M 592 264 L 605 264 L 605 251 L 592 251 L 592 264"/>
  <text x="598" y="259" style="font-size:3px">6,165</text>
  <path class="p6" d="M 579 251 L 592 251 L 592 238 L 579 238 L 579 251"/>
  <text x="585" y="246" style="font-size:3px">6,166</text>
  <path class="p6" d="M 592 251 L 605 251 L 605 238 L 592 238 L 592 251"/>
  <text x="598" y="246" style="font-size:3px">6,167</text>
  <path class="p6" d="M 605 264 L 618 264 L 618 251 L 605 251 L 605 264"/>
  <text x="612" y="259" style="font-size:3px">6,168</text>
  <path class="p6" d="M 618 264 L 631 264 L 631 251 L 618 251 L 618 264"/>
  <text x="625" y="259" style="font-size:3px">6,169</text>
  <path class="p6" d="M 605 251 L 618 251 L 618 238 L 605 238 L 605 251"/>
  <text x="612" y="246" style="font-size:3px">6,170</text>
  <path class="p6" d="M 618 251 L 631 251 L 631 238 L 618 238 L 618 251"/>
  <text x="625" y="246" style="font-size:3px">6,171</text>
  <path class="p6" d="M 631 264 L 644 264 L 644 251 L 631 251 L 631 264"/>
  <text x="638" y="259" style="font-size:3px">6,172</text>
  <path class="p6" d="M 644 264 L 658 264 L 658 251 L 644 251 L 644 264"/>
  <text x="651" y="259" style="font-size:3px">6,173</text>
  <path class="p6" d="M 631 251 L 644 251 L 644 238 L 631 238 L 631 251"/>
  <text x="638" y="246" style="font-size:3px">6,174</text>
  <path class="p6" d="M 644 251 L 658 251 L 658 238 L 644 238 L 644 251"/>
  <text x="651" y="246" style="font-size:3px">6,175</text>
  <path class="p6" d="M 658 290 L 671 290 L 671 277 L 658 277 L 658 290"/>
  <text x="664" y="285" style="font-size:3px">6,176</text>
  <path class="p6" d="M 671 290 L 684 290 L 684 277 L 671 277 L 671 290"/>
  <text x="677" y="285" style="font-size:3px">6,177</text>
  <path class="p6" d="M 658 277 L 671 277 L 671 264 L 658 264 L 658 277"/>
  <text x="664" y="272" style="font-size:3px">6,178</text>
  <path class="p6" d="M 671 277 L 684 277 L 684 264 L 671 264 L 671 277"/>
  <text x="677" y="272" style="font-size:3px">6,179</text>
  <path class="p6" d="M 684 290 L 697 290 L 697 277 L 684 277 L 684 290"/>
  <text x="690" y="285" style="font-size:3px">6,180</text>
  <path class="p6" d="M 697 290 L 710 290 L 710 277 L 697 277 L 697 290"/>
  <text x="703" y="285" style="font-size:3px">6,181</text>
  <path class="p6" d="M 684 277 L 697 277 L 697 264 L 684 264 L 684 277"/>
  <text x="690" y="272" style="font-size:3px">6,182</text>
  <path class="p6" d="M 697 277 L 710 277 L 710 264 L 697 264 L 697 277"/>
  <text x="703" y="272" style="font-size:3px">6,183</text>
  <path class="p6" d="M 658 264 L 671 264 L 671 251 L 658 251 L 658 264"/>
  <text x="664" y="259" style="font-size:3px">6,184</text>
  <path class="p6" d="M 671 264 L 684 264 L 684 251 L 671 251 L 671 264"/>
  <text x="677" y="259" style="font-size:3px">6,185</text>
  <path class="p6" d="M 658 251 L 671 251 L 671 238 L 658 238 L 658 251"/>
  <text x="664" y="246" style="font-size:3px">6,186</text>
  <path class="p6" d="M 671 251 L 684 251 L 684 238 L 671 238 L 671 251"/>
  <text x="677" y="246" style="font-size:3px">6,187</text>
  <path class="p6" d="M 710 290 L 723 290 L 723 277 L 710 277 L 710 290"/>
  <text x="717" y="285" style="font-size:3px">6,188</text>
  <path class="p6" d="M 723 290 L 736 290 L 736 277 L 723 277 L 723 290"/>
  <text x="730" y="285" style="font-size:3px">6,189</text>
  <path class="p6" d="M 710 277 L 723 277 L 723 264 L 710 264 L 710 277"/>
  <text x="717" y="272" style="font-size:3px">6,190</text>
  <path class="p6" d="M 723 277 L 736 277 L 736 264 L 723 264 L 723 277"/>
  <text x="730" y="272" style="font-size:3px">6,191</text>

 <!-- legend -->
 <rect x="1000" y="80" width="320" height="165"/>
 <text x="1013" y="107" style="text-anchor:start; font-weight:bold; font-size:18px">cell label</text>
  <text x="1020" y="134" style="text-anchor:start; font-style:oblique; font-size:18px">level_number,</text>
  <text x="1020" y="161" style="text-anchor:start; font-style:oblique; font-size:18px">cell_index</text>
  <text x="1000" y="274" style="text-anchor:start; font-size:18px">azimuth: 0, polar: 0</text>

 <!-- colorbar -->
 <text x="1000" y="356" style="text-anchor:start; font-weight:bold; font-size:18px">level_number</text>
  <rect class="r0" x="1000" y="838" width="25" height="78"/>
  <text x="1037.5" y="883" style="text-anchor:start; font-size:18px; font-weight:bold">0 min</text>
  <rect class="r1" x="1000" y="760" width="25" height="78"/>
  <text x="1037.5" y="805" style="text-anchor:start; font-size:18px">1</text>
  <rect class="r2" x="1000" y="682" width="25" height="78"/>
  <text x="1037.5" y="727" style="text-anchor:start; font-size:18px">2</text>
  <rect class="r3" x="1000" y="604" width="25" height="78"/>
  <text x="1037.5" y="649" style="text-anchor:start; font-size:18px">3</text>
  <rect class="r4" x="1000" y="526" width="25" height="78"/>
  <text x="1037.5" y="571" style="text-anchor:start; font-size:18px">4</text>
  <rect class="r5" x="1000" y="448" width="25" height="78"/>
  <text x="1037.5" y="493" style="text-anchor:start; font-size:18px">5</text>
  <rect class="r6" x="1000" y="370" width="25" height="78"/>
  <text x="1037.5" y="415" style="text-anchor:start; font-size:18px; font-weight:bold">6 max</text>

</svg>